<?xml version="1.0" encoding="UTF-8"?>
<!DOCTYPE svg PUBLIC "-//W3C//DTD SVG 1.1//EN" "http://www.w3.org/Graphics/SVG/1.1/DTD/svg11.dtd">
<!-- Creator: CorelDRAW X7 -->
<svg xmlns="http://www.w3.org/2000/svg" xml:space="preserve" width="210mm" height="297mm" version="1.1" style="shape-rendering:geometricPrecision; text-rendering:geometricPrecision; image-rendering:optimizeQuality; fill-rule:evenodd; clip-rule:evenodd"
viewBox="0 0 21000 29700"
 xmlns:xlink="http://www.w3.org/1999/xlink">
 <defs>
  <style type="text/css">
   <![CDATA[
    .fil0 {fill:red}
   ]]>
  </style>
 </defs>
 <g id="Слой_x0020_1">
  <metadata id="CorelCorpID_0Corel-Layer"/>
  <path class="fil0" d="M7300 9968c-444,316 -494,731 -494,731l0 0c-438,1897 -661,2944 -661,2944l0 0c-316,1522 687,1194 687,1194l0 0 1975 -444c2470,-607 1039,6236 1039,6236 2940,-1241 4840,-6126 4840,-6126l0 0c656,-1678 -296,-1373 -296,-1373l0 0 -860 205c-728,152 -534,-607 -534,-607l0 0c362,-1678 826,-3198 24,-3398l0 0c-746,-187 -1441,-259 -2073,-259l0 0c-2221,0 -3647,897 -3647,897l0 0z"/>
 </g>
</svg>
