<?xml version="1.0" encoding="UTF-8"?>
<!DOCTYPE svg PUBLIC "-//W3C//DTD SVG 1.1//EN" "http://www.w3.org/Graphics/SVG/1.1/DTD/svg11.dtd">
<!-- Creator: CorelDRAW X7 -->
<svg xmlns="http://www.w3.org/2000/svg" xml:space="preserve" width="297mm" height="210mm" version="1.1" style="shape-rendering:geometricPrecision; text-rendering:geometricPrecision; image-rendering:optimizeQuality; fill-rule:evenodd; clip-rule:evenodd"
viewBox="0 0 29700 21000"
 xmlns:xlink="http://www.w3.org/1999/xlink">
 <defs>
  <style type="text/css">
   <![CDATA[
    .fil0 {fill:#D30007}
    .fil1 {fill:#FEFEFE;fill-rule:nonzero}
   ]]>
  </style>
 </defs>
 <g id="Слой_x0020_1">
  <metadata id="CorelCorpID_0Corel-Layer"/>
  <g id="_929333568">
   <path class="fil0" d="M14816 4762c1320,0 2391,1071 2391,2391 0,1320 -1071,2391 -2391,2391 -1320,0 -2391,-1071 -2391,-2391 0,-1320 1071,-2391 2391,-2391z"/>
   <path class="fil1" d="M12437 8887c0,-21 18,-32 48,-32 65,0 67,94 -2,94l-36 0 0 114 38 0c93,0 93,123 0,123 -41,0 -69,-27 -69,-70l-122 0c0,122 73,188 191,188 140,0 210,-75 210,-171 0,-62 -23,-106 -78,-135 31,-24 47,-65 47,-101 0,-79 -60,-158 -179,-158 -95,0 -177,47 -172,148l124 0zm708 407l136 0 0 -20 -246 -532 -60 0 -245 532 0 20 136 0 32 -69 215 0 32 69zm-77 -188l-124 0 61 -143 63 143zm549 -122l-213 -237 -52 0 0 547c48,0 95,0 143,0l0 -243 115 121 16 0 116 -121 0 243c47,0 95,0 142,0l0 -547 -50 0 -217 237zm931 38c0,-377 -559,-377 -559,0 0,378 559,378 559,0zm-415 0c0,-196 273,-196 273,0 0,198 -273,198 -273,0zm660 272l0 -140 100 0c261,0 261,-405 0,-405 -80,0 -161,0 -239,0 0,182 0,363 0,545 45,0 92,0 139,0zm100 -265l-100 0c0,-44 0,-111 0,-156 32,0 67,0 100,0 81,1 76,156 0,156zm827 -7c0,-377 -560,-377 -560,0 0,378 560,378 560,0zm-416 0c0,-196 273,-196 273,0 0,198 -273,198 -273,0zm624 -135c0,-21 18,-32 48,-32 66,0 67,94 -1,94l-37 0 0 114 38 0c94,0 94,123 0,123 -40,0 -68,-27 -68,-70l-122 0c0,122 72,188 190,188 141,0 211,-75 211,-171 0,-62 -24,-106 -79,-135 32,-24 48,-65 48,-101 0,-79 -60,-158 -180,-158 -95,0 -176,47 -172,148l124 0zm505 407l0 -208c18,0 35,0 53,-3l120 211 155 0 0 -22 -148 -240c109,-69 106,-172 106,-283 -49,0 -96,0 -144,0 0,102 7,206 -132,206l-10 0 0 -206c-49,0 -95,0 -142,0l0 545c47,0 93,0 142,0zm734 -268l0 268c48,0 97,0 144,0l0 -548 -51 0 -275 269 0 -266c-48,0 -95,0 -143,0l0 545 50 0 275 -268zm-5923 1202l323 0 0 60 114 0 0 -182 -57 0 -193 -431 -60 0 -186 431 -56 0 0 182 115 0 0 -60zm157 -321l79 197 -155 0 76 -197zm876 48c0,-377 -559,-377 -559,0 0,378 559,378 559,0zm-416 0c0,-196 274,-196 274,0 0,198 -274,198 -274,0zm975 -273c-358,0 -406,0 -453,0l0 545c47,0 95,0 142,0l0 -417 169 0 0 417c47,0 95,0 142,0l0 -545zm665 273c0,-377 -559,-377 -559,0 0,378 559,378 559,0zm-416 0c0,-196 274,-196 274,0 0,198 -274,198 -274,0zm728 -48l140 320 136 0 0 -21 -246 -531 -60 0 -245 531 0 21 136 0 139 -320zm802 -225c-48,0 -95,0 -143,0l0 197 -168 0 0 -197c-48,0 -96,0 -143,0l0 545c47,0 95,0 143,0l0 -219 168 0 0 219c48,0 95,0 143,0l0 -545zm464 277l0 268c49,0 97,0 144,0l0 -548 -50 0 -276 269 0 -266c-47,0 -95,0 -142,0l0 545 50 0 274 -268zm364 -153l0 421c46,0 92,0 138,0l0 -421 133 0c0,-42 0,-83 0,-124l-405 0c0,41 0,82 0,124l134 0zm698 -124c-128,0 -214,0 -341,0 0,180 0,362 0,545 127,0 220,0 348,0 0,-42 0,-84 0,-124 -82,0 -129,0 -209,0 0,-33 0,-64 0,-96l185 0c0,-41 0,-82 0,-124l-185 0 0 -77c80,0 121,0 202,0 0,-42 0,-84 0,-124zm333 225l140 320 136 0 0 -21 -246 -531 -60 0 -245 531 0 21 136 0 139 -320zm487 -225c-46,0 -93,0 -139,0 0,181 0,362 0,545 79,0 160,0 240,0 261,-1 261,-383 0,-383l-101 0 0 -162zm100 288c76,0 81,131 0,132 -33,1 -68,0 -100,0 0,-44 0,-88 0,-132l100 0zm755 -288c-47,0 -95,0 -142,0l0 197 -168 0 0 -197c-48,0 -96,0 -143,0l0 545c47,0 95,0 143,0l0 -219 168 0 0 219c47,0 95,0 142,0l0 -545zm665 273c0,-377 -559,-377 -559,0 0,378 559,378 559,0zm-415 0c0,-196 273,-196 273,0 0,198 -273,198 -273,0z"/>
   <path class="fil1" d="M13228 6928l0 -579 386 0 0 579 579 0 0 386 -579 0 0 579 -386 0 0 -579 -579 0 0 -386 579 0zm1542 -427l0 1294 -330 0 0 462 1216 0 0 -462 -336 0 0 -1753 -851 0 0 459 301 0z"/>
   <path class="fil1" d="M16076 6313l-245 -273 -60 0 0 629c55,0 110,0 164,0l0 -279 133 140 18 0 134 -140 0 279c54,0 109,0 164,0l0 -629 -58 0 -250 273zm859 -271c-147,0 -247,0 -392,0 0,208 0,418 0,627 145,0 253,0 400,0 0,-47 0,-95 0,-142 -94,0 -148,0 -240,0 0,-38 0,-74 0,-110l213 0c0,-48 0,-95 0,-143l-213 0 0 -89c92,0 139,0 232,0 0,-48 0,-96 0,-143zm108 314c1,213 162,321 322,320 134,0 274,-70 298,-248 -55,0 -104,0 -158,0 -17,68 -72,102 -140,102 -95,-1 -156,-82 -156,-174 0,-104 62,-175 156,-175 67,0 115,29 137,92 55,0 103,0 158,0 -24,-167 -165,-238 -295,-238 -160,0 -321,107 -322,321z"/>
  </g>
 </g>
</svg>
