<?xml version="1.0" encoding="UTF-8"?>
<!DOCTYPE svg PUBLIC "-//W3C//DTD SVG 1.1//EN" "http://www.w3.org/Graphics/SVG/1.1/DTD/svg11.dtd">
<!-- Creator: CorelDRAW X7 -->
<svg xmlns="http://www.w3.org/2000/svg" xml:space="preserve" width="297mm" height="210mm" version="1.1" style="shape-rendering:geometricPrecision; text-rendering:geometricPrecision; image-rendering:optimizeQuality; fill-rule:evenodd; clip-rule:evenodd"
viewBox="0 0 29700 21000"
 xmlns:xlink="http://www.w3.org/1999/xlink">
 <defs>
  <style type="text/css">
   <![CDATA[
    .fil0 {fill:#D30007}
    .fil1 {fill:#FEFEFE;fill-rule:nonzero}
   ]]>
  </style>
 </defs>
 <g id="Слой_x0020_1">
  <metadata id="CorelCorpID_0Corel-Layer"/>
  <g id="_910009744">
   <path class="fil0" d="M13958 4552c1320,0 2390,1070 2390,2391 0,1320 -1070,2390 -2390,2390 -1321,0 -2391,-1070 -2391,-2390 0,-1321 1070,-2391 2391,-2391z"/>
   <g>
    <path class="fil1" d="M11307 6992l780 0 0 389 -780 0 0 -389zm2596 609l189 0c0,-147 0,-304 0,-458l-189 0 0 -1324 -603 0 -877 1537 0 245 959 0 0 418c172,0 348,0 521,0l0 -418zm-465 -1125l6 0 -40 337 0 330 -352 0 386 -667zm1792 -694c-447,0 -821,276 -821,757 0,244 0,523 0,768 0,480 374,756 821,756 455,0 826,-276 826,-756 0,-245 0,-524 0,-768 0,-481 -371,-757 -826,-757zm0 1782c-161,0 -286,-91 -286,-270 0,-235 0,-508 0,-746 0,-173 125,-263 286,-263 166,0 295,90 295,263 0,238 0,511 0,746 0,179 -129,270 -295,270z"/>
    <path class="fil1" d="M15201 5316c0,-121 27,-210 80,-268 53,-58 126,-88 216,-88 95,0 168,29 221,87 54,58 80,148 80,269 0,121 -26,210 -80,269 -53,58 -125,87 -216,87 -94,0 -168,-29 -221,-87 -53,-58 -80,-147 -80,-269zm202 0c0,87 10,146 31,176 15,22 37,33 64,33 27,0 49,-11 65,-33 19,-30 29,-89 29,-176 0,-87 -10,-145 -29,-174 -16,-23 -38,-34 -65,-34 -27,0 -49,11 -64,33 -21,29 -31,88 -31,175zm292 1073l-192 0 720 -1429 188 0 -716 1429zm418 -356c0,-121 27,-211 80,-269 53,-59 126,-88 218,-88 93,0 166,29 219,88 53,58 80,148 80,269 0,122 -27,212 -80,271 -53,58 -125,87 -216,87 -94,0 -168,-29 -221,-87 -53,-59 -80,-149 -80,-271zm202 1c0,88 10,147 31,176 15,23 37,34 64,34 27,0 49,-11 64,-33 20,-30 30,-89 30,-177 0,-89 -10,-148 -29,-178 -16,-22 -38,-33 -65,-33 -28,0 -49,11 -64,33 -21,30 -31,89 -31,178z"/>
   </g>
   <path class="fil1" d="M12156 9083l0 -208c18,0 35,0 53,-3l120 211 155 0 0 -21 -148 -240c109,-70 105,-172 105,-284 -48,0 -95,0 -143,0 0,102 7,207 -132,207l-10 0 0 -207c-49,0 -95,0 -142,0l0 545c47,0 93,0 142,0zm615 -319l140 319 136 0 0 -20 -246 -532 -60 0 -245 532 0 20 136 0 139 -319zm381 319l151 0 258 -524 0 -21 -151 0 -93 201 -4 0 -103 -201 -156 0 0 21 184 334 -86 176 0 14zm724 -231c76,0 77,107 0,107 -33,0 -68,0 -100,0l0 -107 100 0zm-100 -123l0 -66 252 0 0 -125 -391 0 0 545 240 0c260,0 260,-354 0,-354l-101 0zm855 -191c-47,0 -95,0 -142,0l0 198 -169 0 0 -198c-47,0 -95,0 -142,0l0 545c47,0 95,0 142,0l0 -218 169 0 0 218c47,0 95,0 142,0l0 -545zm139 0l0 545 240 0c261,0 261,-382 0,-382l-100 0 0 -163 -140 0zm239 288c77,0 81,132 0,133 -32,1 -67,0 -99,0l0 -133 99 0zm300 257l139 0 0 -545 -139 0 0 545zm618 -545c-128,0 -214,0 -341,0 0,181 0,363 0,545 127,0 220,0 348,0 0,-41 0,-83 0,-123 -82,0 -129,0 -209,0 0,-33 0,-64 0,-96l185 0c0,-42 0,-83 0,-124l-185 0 0 -77c80,0 121,0 202,0 0,-42 0,-84 0,-125zm-3201 1478l0 -208c18,0 35,0 54,-3l120 211 155 0 0 -22 -148 -239c108,-70 105,-173 105,-284 -48,0 -96,0 -143,0 0,102 7,206 -133,206l-10 0 0 -206c-48,0 -95,0 -142,0l0 545c47,0 94,0 142,0zm755 0l137 0 0 -20 -246 -532 -60 0 -246 532 0 20 137 0 32 -68 214 0 32 68zm-77 -187l-124 0 61 -144 63 144zm425 187l0 -139 100 0c261,0 261,-405 0,-406 -80,0 -161,0 -240,0 0,182 0,364 0,545 46,0 93,0 140,0zm99 -265l-99 0c0,-44 0,-111 0,-155 32,0 67,-1 99,0 81,0 77,155 0,155zm382 -155l0 420c46,0 92,0 138,0l0 -420 133 0c0,-42 0,-84 0,-125l-405 0c0,41 0,83 0,125l134 0zm357 -125l0 545 240 0c261,-1 261,-382 0,-382l-100 0 0 -163 -140 0zm239 288c77,0 81,132 0,133 -32,0 -67,0 -99,0l0 -133 99 0zm299 257l140 0 0 -545 -140 0 0 545z"/>
  </g>
 </g>
</svg>
