<?xml version="1.0" encoding="UTF-8"?>
<!DOCTYPE svg PUBLIC "-//W3C//DTD SVG 1.1//EN" "http://www.w3.org/Graphics/SVG/1.1/DTD/svg11.dtd">
<!-- Creator: CorelDRAW X7 -->
<svg xmlns="http://www.w3.org/2000/svg" xml:space="preserve" width="297mm" height="210mm" version="1.1" style="shape-rendering:geometricPrecision; text-rendering:geometricPrecision; image-rendering:optimizeQuality; fill-rule:evenodd; clip-rule:evenodd"
viewBox="0 0 29700 21000"
 xmlns:xlink="http://www.w3.org/1999/xlink">
 <defs>
  <style type="text/css">
   <![CDATA[
    .fil0 {fill:#D30007}
    .fil1 {fill:#FEFEFE;fill-rule:nonzero}
   ]]>
  </style>
 </defs>
 <g id="Слой_x0020_1">
  <metadata id="CorelCorpID_0Corel-Layer"/>
  <g id="_910011728">
   <path class="fil0" d="M14850 7742c1320,0 2391,1071 2391,2391 0,1320 -1071,2391 -2391,2391 -1320,0 -2391,-1071 -2391,-2391 0,-1320 1071,-2391 2391,-2391z"/>
   <g>
    <path class="fil1" d="M12911 10193l791 0 0 395 -791 0 0 -395zm1743 -705l918 0 0 -484 -1389 0 0 1243c165,-3 529,-51 755,16 124,35 194,105 201,239 -3,182 -99,274 -255,274 -150,0 -246,-77 -249,-223l-491 0c20,452 329,726 753,726 516,0 787,-395 784,-777 -4,-663 -507,-768 -1027,-736l0 -278z"/>
    <path class="fil1" d="M15613 8486c0,-121 26,-211 80,-269 53,-58 125,-87 216,-87 94,0 168,29 221,87 53,58 79,147 79,269 0,120 -26,210 -79,268 -53,58 -126,88 -217,88 -94,0 -167,-29 -220,-87 -54,-58 -80,-148 -80,-269zm202 0c0,87 10,145 30,175 16,22 37,33 64,33 28,0 50,-11 65,-33 20,-30 30,-88 30,-175 0,-88 -10,-146 -30,-175 -15,-23 -37,-34 -65,-34 -27,0 -48,11 -64,33 -20,30 -30,88 -30,176zm291 1073l-191 0 719 -1429 188 0 -716 1429zm419 -357c0,-121 26,-210 80,-269 53,-58 125,-88 218,-88 92,0 165,30 219,88 53,59 79,148 79,269 0,123 -26,213 -79,271 -54,59 -126,88 -217,88 -94,0 -167,-29 -220,-88 -54,-58 -80,-148 -80,-271zm202 1c0,88 10,147 30,176 16,23 37,35 64,35 28,0 49,-11 64,-34 20,-30 30,-89 30,-177 0,-88 -9,-147 -29,-177 -16,-22 -37,-33 -65,-33 -28,0 -49,11 -64,33 -20,30 -30,89 -30,177z"/>
   </g>
   <g>
    <path class="fil1" d="M12270 12287l323 0 0 60 114 0 0 -182 -57 0 -193 -431 -60 0 -187 431 -55 0 0 182 115 0 0 -60zm157 -320l78 197 -154 0 76 -197zm876 47c0,-377 -559,-377 -559,0 0,378 559,378 559,0zm-416 0c0,-196 273,-196 273,0 0,198 -273,198 -273,0zm975 -273c-358,0 -407,0 -453,0l0 545c46,0 95,0 142,0l0 -417 168 0 0 417c48,0 95,0 143,0l0 -545zm179 550c42,0 76,-28 76,-71 0,-44 -34,-73 -76,-73 -44,0 -78,29 -78,73 0,43 34,71 78,71zm429 -5l150 0 259 -524 0 -21 -151 0 -94 201 -4 0 -102 -201 -156 0 0 21 184 333 -86 176 0 15zm452 -273c0,186 141,279 279,278 116,0 238,-60 259,-215 -48,0 -91,0 -137,0 -15,59 -63,88 -122,88 -82,0 -135,-70 -135,-151 0,-90 53,-151 135,-151 59,0 100,24 119,80 48,0 90,0 137,0 -21,-146 -143,-207 -256,-207 -138,0 -279,93 -279,278zm851 -46l140 319 136 0 0 -20 -246 -532 -60 0 -245 532 0 20 136 0 139 -319zm381 319l151 0 258 -524 0 -21 -151 0 -93 201 -4 0 -103 -201 -156 0 0 21 184 333 -86 176 0 15zm626 -421l198 0c0,-46 0,-78 0,-124 -111,0 -228,0 -339,0l0 545c47,0 95,0 141,0l0 -421zm621 153l0 268c48,0 96,0 144,0l0 -547 -51 0 -275 269 0 -267c-48,0 -95,0 -143,0l0 545 50 0 275 -268z"/>
    <path class="fil1" d="M13565 12458c-25,0 -50,0 -74,0l0 103 -88 0 0 -103c-24,0 -49,0 -74,0l0 283c25,0 50,0 74,0l0 -113 88 0 0 113c24,0 49,0 74,0l0 -283zm252 283l71 0 0 -10 -128 -276 -31 0 -128 276 0 10 71 0 17 -35 111 0 17 35zm-40 -97l-65 0 32 -74 33 74zm468 -99c0,-49 -39,-87 -88,-87l-121 0 0 283 133 0c58,0 88,-40 88,-89 0,-25 -11,-46 -34,-58 14,-11 22,-32 22,-49zm-81 84c29,0 29,48 0,48l-58 0 0 -48 58 0zm-13 -106c30,0 30,46 1,46l-46 0 0 -46 45 0zm339 -65c-66,0 -111,0 -176,0 0,94 0,189 0,283 65,0 114,0 180,0 0,-21 0,-43 0,-64 -43,0 -67,0 -108,0 0,-17 0,-33 0,-50l96 0c0,-21 0,-43 0,-64l-96 0 0 -40c41,0 62,0 104,0 0,-22 0,-44 0,-65zm49 142c1,96 73,145 145,144 61,0 124,-31 135,-111 -25,0 -47,0 -72,0 -7,30 -32,45 -63,45 -42,0 -70,-37 -70,-78 0,-47 28,-79 70,-79 31,0 52,13 62,42 25,0 47,0 71,0 -10,-76 -74,-108 -133,-108 -72,0 -144,49 -145,145zm407 -142c-24,0 -48,0 -72,0 0,95 0,189 0,283 41,0 83,0 125,0 135,0 135,-198 0,-198l-53 0 0 -85zm52 150c40,0 42,68 0,69 -17,0 -35,0 -52,0 0,-23 0,-46 0,-69l52 0zm251 -8c0,96 73,145 145,144 60,0 124,-31 134,-111 -24,0 -47,0 -71,0 -7,30 -32,45 -63,45 -43,0 -70,-37 -70,-78 0,-47 28,-79 70,-79 30,0 52,13 62,42 25,0 46,0 71,0 -11,-76 -74,-108 -133,-108 -72,0 -145,49 -145,145zm407 141l0 -72 52 0c136,0 136,-210 0,-211 -41,0 -83,0 -124,0 0,95 0,189 0,283 24,0 48,0 72,0zm52 -137l-52 0c0,-23 0,-58 0,-81 17,0 35,0 52,0 42,0 40,81 0,81zm429 -4c0,-195 -290,-195 -290,0 0,196 290,196 290,0zm-216 0c0,-102 142,-102 142,0 0,103 -142,103 -142,0zm345 141l0 -108c9,0 18,0 28,-1l62 109 81 0 0 -11 -77 -125c56,-35 54,-89 54,-147 -25,0 -49,0 -74,0 0,53 4,107 -69,107l-5 0 0 -107c-25,0 -49,0 -74,0l0 283c25,0 49,0 74,0zm-3280 486l167 0 0 31 59 0 0 -95 -29 0 -100 -224 -32 0 -97 224 -28 0 0 95 60 0 0 -31zm81 -167l41 102 -80 0 39 -102zm359 -117c-67,0 -112,0 -177,0 0,94 0,188 0,283 65,0 114,0 180,0 0,-22 0,-43 0,-64 -42,0 -67,0 -108,0 0,-17 0,-34 0,-50l96 0c0,-22 0,-43 0,-65l-96 0 0 -40c41,0 62,0 105,0 0,-21 0,-43 0,-64zm94 283l-26 0 0 -283c25,0 49,0 74,0l0 138 143 -139 26 0 0 284c-24,0 -49,0 -74,0l0 -139 -143 139zm77 -372c-14,1 -27,3 -41,4 1,46 26,69 70,69 45,0 69,-23 71,-69 -14,-1 -28,-3 -42,-4 -2,17 -13,22 -30,22 -17,0 -26,-7 -28,-22l0 0zm193 230c0,97 73,145 145,145 60,0 124,-32 134,-112 -24,0 -47,0 -71,0 -8,30 -32,46 -63,46 -43,-1 -70,-37 -70,-79 0,-47 28,-79 70,-79 30,0 52,13 62,42 25,0 46,0 71,0 -11,-76 -74,-107 -133,-107 -72,0 -145,48 -145,144zm376 -77l0 219c24,0 48,0 72,0l0 -219 69 0c0,-21 0,-43 0,-64l-210 0c0,21 0,43 0,64l69 0zm395 23c0,-49 -39,-87 -88,-87l-121 0 0 283 133 0c57,0 87,-40 88,-90 0,-25 -11,-46 -34,-57 14,-12 22,-32 22,-49zm-82 83c29,0 30,49 1,49l-58 0 0 -49 57 0zm-12 -106c29,0 29,46 1,46l-46 0 0 -46 45 0zm331 80l0 139c26,0 51,0 75,0l0 -284 -26 0 -143 139 0 -138c-25,0 -50,0 -74,0l0 283 26 0 142 -139zm120 128l0 11 81 0 48 -83 38 0 0 83c24,0 49,0 72,0 0,-94 0,-189 0,-283 -41,0 -83,0 -124,0 -111,0 -131,134 -60,183l-55 89zm115 -138c-39,0 -41,-69 0,-70 17,0 35,0 52,0 0,24 0,48 0,70l-52 0zm381 149l0 -108c10,0 19,0 28,-2l63 110 80 0 0 -11 -77 -125c56,-36 55,-89 55,-147 -25,0 -50,0 -75,0 0,53 4,107 -68,107l-6 0 0 -107c-25,0 -49,0 -73,0l0 283c24,0 48,0 73,0zm393 0l70 0 0 -11 -127 -276 -32 0 -127 276 0 11 71 0 16 -36 112 0 17 36zm-40 -98l-65 0 32 -74 33 74zm220 98l0 -73 52 0c136,0 136,-210 0,-210 -42,0 -84,0 -124,0 0,94 0,189 0,283 23,0 48,0 72,0zm52 -138l-52 0c0,-23 0,-57 0,-81 17,0 35,0 52,0 42,1 39,81 0,81zm198 -81l0 219c24,0 48,0 71,0l0 -219 70 0c0,-21 0,-43 0,-64l-211 0c0,21 0,43 0,64l70 0zm185 -64l0 283 125 0c136,-1 136,-199 0,-199l-52 0 0 -84 -73 0zm125 149c39,0 42,69 0,69 -17,1 -36,0 -52,0l0 -69 52 0zm155 134l72 0 0 -283 -72 0 0 283z"/>
   </g>
  </g>
 </g>
</svg>
