<?xml version="1.0" encoding="UTF-8"?>
<!DOCTYPE svg PUBLIC "-//W3C//DTD SVG 1.1//EN" "http://www.w3.org/Graphics/SVG/1.1/DTD/svg11.dtd">
<!-- Creator: CorelDRAW X7 -->
<svg xmlns="http://www.w3.org/2000/svg" xml:space="preserve" width="210mm" height="297mm" version="1.1" style="shape-rendering:geometricPrecision; text-rendering:geometricPrecision; image-rendering:optimizeQuality; fill-rule:evenodd; clip-rule:evenodd"
viewBox="0 0 21000 29700"
 xmlns:xlink="http://www.w3.org/1999/xlink">
 <defs>
  <style type="text/css">
   <![CDATA[
    .fil1 {fill:black}
    .fil2 {fill:#E60013}
    .fil0 {fill:black;fill-rule:nonzero}
   ]]>
  </style>
 </defs>
 <g id="Слой_x0020_1">
  <metadata id="CorelCorpID_0Corel-Layer"/>
  <g id="_788226496">
   <path class="fil0" d="M3804 11535c113,-119 209,-284 240,-433 35,-149 1,-304 -56,-433 -201,-31 -364,-35 -655,-35 -278,0 -423,14 -613,35l-184 866c184,21 322,35 599,35 291,0 454,-3 669,-35zm1237 -1417c117,317 167,652 94,984 -69,333 -238,666 -513,984 -562,104 -1102,142 -1629,142 -277,0 -530,-10 -1566,-34l378 -1785 -413 -326 14 -69c620,-24 1341,-34 1958,-38l118 0c520,0 1039,38 1559,142z"/>
   <path class="fil0" d="M6659 12194l-967 0 377 -1785 -412 -329 14 -69 2114 0c468,0 1129,10 1597,90 -10,222 -24,457 -72,679 -59,281 -125,572 -257,870l-395 17 468 527 -1213 0 -938 -1033 13 -69 905 -4 37 0c101,0 201,-3 302,-10 24,-73 48,-146 62,-219 17,-72 24,-148 31,-221 -214,-14 -398,-14 -675,-14l-655 0 -336 1570z"/>
   <polygon class="fil1" points="10026,10011 10012,10080 10425,10409 10047,12194 11017,12194 11478,10011 "/>
   <path class="fil0" d="M13860 11521l856 -1510 1036 0 -1254 2183c-357,27 -669,34 -984,34 -315,0 -620,-7 -963,-34l-278 -1788 -405 -326 14 -69 1372 0 218 1510c32,7 118,14 191,14 69,0 156,-7 197,-14z"/>
   <path class="fil0" d="M19349 11525l-142 665c-530,28 -1029,38 -1539,38 -530,0 -1074,-10 -1590,-38l378 -1781 -413 -326 14 -69c579,-24 1352,-34 1965,-38l260 0c460,0 904,11 1372,38l-142 665c-375,-34 -860,-34 -1237,-34 -295,0 -610,0 -898,-7l-48 225 1410 0 -100 492 -1414 0 -45 204 1025 0c354,0 777,0 1144,-34z"/>
   <path class="fil2" d="M10495 8063c-65,46 -72,107 -72,107l0 0c-64,277 -97,429 -97,429l0 0c-46,222 101,174 101,174l0 0 288 -64c360,-89 151,909 151,909 429,-181 706,-893 706,-893l0 0c96,-245 -43,-201 -43,-201l0 0 -125 30c-106,23 -78,-88 -78,-88l0 0c53,-245 120,-467 3,-496l0 0c-108,-27 -210,-38 -302,-38l0 0c-324,0 -532,131 -532,131l0 0z"/>
   <path class="fil0" d="M5479 13245l26 -125c190,-16 378,-20 562,-20 172,0 337,4 505,18l-16 78c-146,-14 -317,-18 -473,-18 -154,0 -328,4 -488,17l-71 333 699 0 -15 68 -699 0 -81 385 -105 0 174 -819 -69 -29 3 -14c102,-5 398,-19 636,-19l-1 4 -506 49 -81 92z"/>
   <polygon class="fil0" points="7098,13981 6993,13981 7167,13162 7099,13126 7103,13113 7282,13113 "/>
   <path class="fil0" d="M8998 13198c-242,-14 -391,-16 -526,-18l-170 801 -111 0 170 -801c-136,2 -286,4 -534,18l15 -78c199,-14 398,-21 592,-21 196,0 390,7 583,21l-19 78z"/>
   <path class="fil0" d="M10585 13981l-111 0 -578 -781c-75,-4 -137,-6 -217,-6l-166 787 -110 0 172 -816 -67 -39 3 -13 110 0c116,0 232,2 358,9l525 720 155 -729 110 0 -184 868z"/>
   <path class="fil0" d="M12289 13899l-15 75c-175,14 -340,20 -510,20 -194,0 -390,-6 -581,-20l173 -813 -67 -28 3 -14c65,-3 218,-10 383,-15 56,-1 111,-3 166,-3l4 0c19,0 37,-2 57,-2l64 0c165,0 325,7 488,21l-16 75c-150,-13 -324,-19 -480,-19 -164,0 -335,4 -501,14l-69 326 719 0 -12 59 -720 0 -70 328c165,11 341,15 507,15 154,0 325,-6 477,-19z"/>
   <path class="fil0" d="M12950 13523c5,-67 10,-126 24,-192 16,-75 33,-130 61,-204 183,-17 366,-26 543,-26 182,0 363,6 543,21l-16 74c-161,-12 -328,-22 -504,-22 -163,0 -323,9 -480,22 -15,46 -26,87 -37,135 -8,42 -16,83 -18,127 316,30 647,24 981,71 -5,77 -13,140 -28,213 -19,82 -36,145 -64,227 -187,17 -376,24 -556,24 -181,0 -366,-4 -544,-19l16 -74c162,11 332,19 511,19 166,0 329,-7 485,-19 16,-52 30,-105 42,-158 11,-50 19,-100 23,-148 -321,-31 -650,-30 -982,-71z"/>
   <path class="fil0" d="M14622 13523c5,-67 10,-126 24,-192 16,-75 33,-130 61,-204 183,-17 366,-26 543,-26 182,0 363,6 543,21l-16 74c-161,-12 -328,-22 -504,-22 -163,0 -323,9 -480,22 -15,46 -26,87 -37,135 -8,42 -16,83 -18,127 316,30 647,24 981,71 -4,77 -13,140 -28,213 -18,82 -36,145 -64,227 -187,17 -375,24 -556,24 -181,0 -366,-4 -544,-19l16 -74c162,11 332,19 511,19 166,0 329,-7 485,-19 16,-52 30,-105 42,-158 11,-50 19,-100 23,-148 -321,-31 -650,-30 -982,-71z"/>
  </g>
 </g>
</svg>
