<svg width="18300" height="6100" xmlns="http://www.w3.org/2000/svg">
 <defs>
  <style type="text/css">
   <![CDATA[
    .fil1 {fill:black}
    .fil2 {fill:#E60013}
    .fil0 {fill:black;fill-rule:nonzero}
   ]]>
  </style>
 </defs>
 <g>
  <title>background</title>
  <rect fill="none" id="canvas_background" height="6102" width="18302" y="-1" x="-1"/>
 </g>
 <g>
  <title>Layer 1</title>
  <g id="Слой_x0020_1">
   <metadata transform="translate(220.07345581054688,-7582.53076171875) " id="CorelCorpID_0Corel-Layer"/>
   <g stroke="null" id="_788226496">
    <path stroke="null" id="svg_1" d="m2423.539276,3552.900068c113,-117.036295 209,-279.31351 240,-425.854753c35,-146.541243 1,-298.983476 -56,-425.854753c-201,-30.488447 -364,-34.42244 -655,-34.42244c-278,0 -423,13.768976 -613,34.42244l-184,851.709506c184,20.653464 322,34.42244 599,34.42244c291,0 454,-2.950495 669,-34.42244zm1237,-1393.617056c117,311.768953 167,641.240875 94,967.762303c-69,327.504926 -238,655.009851 -513,967.762303c-562,102.283821 -1102,139.656755 -1629,139.656755c-277,0 -530,-9.834983 -1566,-33.438941l378,-1755.544421l-413,-320.620438l14,-67.861381c620,-23.603959 1341,-33.438941 1958,-37.372934l118,0c520,0 1039,37.372934 1559,139.656755z" class="fil0"/>
    <path stroke="null" id="svg_2" d="m5278.539276,4201.025431l-967,0l377,-1755.544421l-412,-323.570933l14,-67.861381l2114,0c468,0 1129,9.834983 1597,88.514845c-10,218.336617 -24,449.458712 -72,667.795329c-59,276.363015 -125,562.561013 -257,855.643499l-395,16.719471l468,518.303591l-1213,0l-938,-1015.953718l13,-67.861381l905,-3.933993l37,0c101,0 201,-2.950495 302,-9.834983c24,-71.795374 48,-143.590748 62,-215.386122c17,-70.811876 24,-145.557745 31,-217.353119c-214,-13.768976 -398,-13.768976 -675,-13.768976l-655,0l-336,1544.092292z" class="fil0"/>
    <polygon stroke="null" id="svg_3" points="8645.5390625,2054.0486450195312 8631.5390625,2121.9099731445312 9044.5390625,2445.4810180664062 8666.5390625,4201.025451660156 9636.5390625,4201.025451660156 10097.5390625,2054.0486450195312 " class="fil1"/>
    <path stroke="null" id="svg_4" d="m12479.539276,3539.131092l856,-1485.082396l1036,0l-1254,2146.976735c-357,26.554453 -669,33.438941 -984,33.438941c-315,0 -620,-6.884488 -963,-33.438941l-278,-1758.494916l-405,-320.620438l14,-67.861381l1372,0l218,1485.082396c32,6.884488 118,13.768976 191,13.768976c69,0 156,-6.884488 197,-13.768976z" class="fil0"/>
    <path stroke="null" id="svg_5" d="m17968.539276,3543.065085l-142,654.026353c-530,27.537952 -1029,37.372934 -1539,37.372934c-530,0 -1074,-9.834983 -1590,-37.372934l378,-1751.610428l-413,-320.620438l14,-67.861381c579,-23.603959 1352,-33.438941 1965,-37.372934l260,0c460,0 904,10.818481 1372,37.372934l-142,654.026353c-375,-33.438941 -860,-33.438941 -1237,-33.438941c-295,0 -610,0 -898,-6.884488l-48,221.287112l1410,0l-100,483.881151l-1414,0l-45,200.633648l1025,0c354,0 777,0 1144,-33.438941z" class="fil0"/>
    <path stroke="null" id="svg_6" d="m9114.539276,138.194056c-65,45.240921 -72,105.234315 -72,105.234315l0,0c-64,272.429022 -97,421.92076 -97,421.92076l0,0c-46,218.336617 101,171.1287 101,171.1287l0,0l288,-62.94389c360,-87.531346 151,893.999932 151,893.999932c429,-178.013188 706,-878.26396 706,-878.26396l0,0c96,-240.957077 -43,-197.683153 -43,-197.683153l0,0l-125,29.504948c-106,22.62046 -78,-86.547848 -78,-86.547848l0,0c53,-240.957077 120,-459.293695 3,-487.815145l0,0c-108,-26.554453 -210,-37.372934 -302,-37.372934l0,0c-324,0 -532,128.838274 -532,128.838274l0,0z" class="fil2"/>
    <path stroke="null" id="svg_7" d="m4098.539276,5234.682118l26,-122.937284c190,-15.735972 378,-19.669966 562,-19.669966c172,0 337,3.933993 505,17.702969l-16,76.712865c-146,-13.768976 -317,-17.702969 -473,-17.702969c-154,0 -328,3.933993 -488,16.719471l-71,327.504926l699,0l-15,66.877883l-699,0l-81,378.646836l-105,0l174,-805.485087l-69,-28.52145l3,-13.768976c102,-4.917491 398,-18.686467 636,-18.686467l-1,3.933993l-506,48.191415l-81,90.481841z" class="fil0"/>
    <polygon stroke="null" id="svg_8" points="5717.5390625,5958.536682128906 5612.5390625,5958.536682128906 5786.5390625,5153.051818847656 5718.5390625,5117.646057128906 5722.5390625,5104.860412597656 5901.5390625,5104.860412597656 " class="fil0"/>
    <path stroke="null" id="svg_9" d="m7617.539276,5188.4577c-242,-13.768976 -391,-15.735972 -526,-17.702969l-170,787.782118l-111,0l170,-787.782118c-136,1.966997 -286,3.933993 -534,17.702969l15,-76.712865c199,-13.768976 398,-20.653464 592,-20.653464c196,0 390,6.884488 583,20.653464l-19,76.712865z" class="fil0"/>
    <path stroke="null" id="svg_10" d="m9204.539276,5958.536849l-111,0l-578,-768.112153c-75,-3.933993 -137,-5.90099 -217,-5.90099l-166,774.013143l-110,0l172,-802.534593l-67,-38.356433l3,-12.785478l110,0c116,0 232,1.966997 358,8.851484l525,708.118758l155,-716.970243l110,0l-184,853.676503z" class="fil0"/>
    <path stroke="null" id="svg_11" d="m10908.539276,5877.889991l-15,73.762371c-175,13.768976 -340,19.669966 -510,19.669966c-194,0 -390,-5.90099 -581,-19.669966l173,-799.584098l-67,-27.537952l3,-13.768976c65,-2.950495 218,-9.834983 383,-14.752474c56,-0.983498 111,-2.950495 166,-2.950495l4,0c19,0 37,-1.966997 57,-1.966997l64,0c165,0 325,6.884488 488,20.653464l-16,73.762371c-150,-12.785478 -324,-18.686467 -480,-18.686467c-164,0 -335,3.933993 -501,13.768976l-69,320.620438l719,0l-12,58.026398l-720,0l-70,322.587434c165,10.818481 341,14.752474 507,14.752474c154,0 325,-5.90099 477,-18.686467z" class="fil0"/>
    <path stroke="null" id="svg_12" d="m11569.539276,5508.094639c5,-65.894384 10,-123.920783 24,-188.831669c16,-73.762371 33,-127.854776 61,-200.633648c183,-16.719471 366,-25.570955 543,-25.570955c182,0 363,5.90099 543,20.653464l-16,72.778872c-161,-11.801979 -328,-21.636962 -504,-21.636962c-163,0 -323,8.851484 -480,21.636962c-15,45.240921 -26,85.56435 -37,132.772267c-8,41.306928 -16,81.630357 -18,124.904281c316,29.504948 647,23.603959 981,69.828378c-5,75.729367 -13,137.689759 -28,209.485133c-19,80.646859 -36,142.60725 -64,223.254108c-187,16.719471 -376,23.603959 -556,23.603959c-181,0 -366,-3.933993 -544,-18.686467l16,-72.778872c162,10.818481 332,18.686467 511,18.686467c166,0 329,-6.884488 485,-18.686467c16,-51.14191 30,-103.267319 42,-155.392727c11,-49.174914 19,-98.349828 23,-145.557745c-321,-30.488447 -650,-29.504948 -982,-69.828378z" class="fil0"/>
    <path stroke="null" id="svg_13" d="m13241.539276,5508.094639c5,-65.894384 10,-123.920783 24,-188.831669c16,-73.762371 33,-127.854776 61,-200.633648c183,-16.719471 366,-25.570955 543,-25.570955c182,0 363,5.90099 543,20.653464l-16,72.778872c-161,-11.801979 -328,-21.636962 -504,-21.636962c-163,0 -323,8.851484 -480,21.636962c-15,45.240921 -26,85.56435 -37,132.772267c-8,41.306928 -16,81.630357 -18,124.904281c316,29.504948 647,23.603959 981,69.828378c-4,75.729367 -13,137.689759 -28,209.485133c-18,80.646859 -36,142.60725 -64,223.254108c-187,16.719471 -375,23.603959 -556,23.603959c-181,0 -366,-3.933993 -544,-18.686467l16,-72.778872c162,10.818481 332,18.686467 511,18.686467c166,0 329,-6.884488 485,-18.686467c16,-51.14191 30,-103.267319 42,-155.392727c11,-49.174914 19,-98.349828 23,-145.557745c-321,-30.488447 -650,-29.504948 -982,-69.828378z" class="fil0"/>
   </g>
  </g>
 </g>
</svg>