<?xml version="1.0" encoding="UTF-8"?>
<!DOCTYPE svg PUBLIC "-//W3C//DTD SVG 1.1//EN" "http://www.w3.org/Graphics/SVG/1.1/DTD/svg11.dtd">
<!-- Creator: CorelDRAW X7 -->
<svg xmlns="http://www.w3.org/2000/svg" xml:space="preserve" width="42mm" height="70mm" version="1.1" style="shape-rendering:geometricPrecision; text-rendering:geometricPrecision; image-rendering:optimizeQuality; fill-rule:evenodd; clip-rule:evenodd"
viewBox="0 0 4200 7000"
 xmlns:xlink="http://www.w3.org/1999/xlink">
 <defs>
  <style type="text/css">
   <![CDATA[
    .fil0 {fill:#D9DADA}
   ]]>
  </style>
 </defs>
 <g id="Слой_x0020_1">
  <metadata id="CorelCorpID_0Corel-Layer"/>
  <g id="_782753200">
   <path class="fil0" d="M933 4961l2104 0 -8 1822 -2096 0 0 -1822zm-678 -615c-52,-320 -11,-1103 -10,-1471 0,-608 296,-642 859,-641 254,0 2035,-22 2200,18 563,139 376,1083 374,1855 -1,608 -305,641 -863,641 -491,-1 -981,0 -1471,0 -461,0 -1012,71 -1089,-402zm687 -4138l2087 0 -9 1821 -2087 0 9 -1821zm2938 3390c374,-21 371,-193 0,-215 0,-289 44,-717 -75,-951 -229,-451 -539,-281 -573,-446 0,-414 52,-1712 -25,-1939 -67,-77 -1847,-36 -2207,-37 -46,-1 -112,-3 -156,7 -76,18 -50,15 -90,46 -62,162 -23,1562 -23,1923 -58,117 -17,45 -182,94 -633,186 -496,862 -496,1411 0,756 -104,1360 678,1460 26,2329 -138,2022 557,2048 310,0 -297,0 1459,-12 667,-13 480,72 485,-2027 743,-214 648,-536 648,-1362z"/>
   <path class="fil0" d="M1036 4320c-490,0 -355,-390 -355,-829 0,-998 -307,-821 2202,-821 486,0 359,328 359,1300 0,231 -58,350 -291,350l-1915 0zm-233 -1829c-406,125 -325,482 -325,932 0,385 -90,889 228,1048 160,79 2266,96 2462,23 344,-128 287,-545 287,-935 0,-420 79,-864 -229,-1027 -173,-92 -2189,-114 -2423,-41z"/>
   <path class="fil0" d="M1604 2957c-50,35 -55,82 -55,82l0 0c-50,214 -75,332 -75,332l0 0c-35,171 78,134 78,134l0 0 222 -50c279,-68 117,703 117,703 332,-140 546,-690 546,-690l0 0c74,-189 -33,-155 -33,-155l0 0 -97 23c-82,17 -61,-68 -61,-68l0 0c41,-189 94,-361 3,-383l0 0c-84,-21 -162,-30 -233,-30l0 0c-251,0 -412,102 -412,102l0 0z"/>
  </g>
 </g>
</svg>
