<?xml version="1.0" encoding="UTF-8"?>
<!DOCTYPE svg PUBLIC "-//W3C//DTD SVG 1.1//EN" "http://www.w3.org/Graphics/SVG/1.1/DTD/svg11.dtd">
<!-- Creator: CorelDRAW X7 -->
<svg xmlns="http://www.w3.org/2000/svg" xml:space="preserve" width="70mm" height="70mm" version="1.1" style="shape-rendering:geometricPrecision; text-rendering:geometricPrecision; image-rendering:optimizeQuality; fill-rule:evenodd; clip-rule:evenodd"
viewBox="0 0 7000 7000"
 xmlns:xlink="http://www.w3.org/1999/xlink">
 <defs>
  <style type="text/css">
   <![CDATA[
    .fil0 {fill:#D9DADA}
   ]]>
  </style>
 </defs>
 <g id="Слой_x0020_1">
  <metadata id="CorelCorpID_0Corel-Layer"/>
  <g id="_784839040">
   <path class="fil0" d="M3317 415c367,-42 745,43 1035,177 325,149 496,313 692,515 504,519 589,1141 542,1863 -65,977 -394,1963 -1115,2539 -554,441 -1079,714 -1701,195 -769,-642 -1140,-1183 -1288,-2361 -101,-803 -86,-1436 324,-2016 299,-421 766,-825 1511,-912zm1069 5642c50,270 36,444 200,628 329,370 772,383 765,98 -9,-337 -526,-14 -565,-663 -33,-546 167,-405 584,-1063 633,-1001 899,-2808 225,-3860 -1022,-1592 -3159,-1560 -4162,-6 -667,1035 -410,2924 228,3892 404,614 610,520 580,1037 -15,274 -129,408 -363,470 -117,30 -200,59 -203,194 -8,341 547,181 752,-72 117,-145 191,-359 203,-606 64,4 283,150 403,188 155,49 337,82 507,78 378,-11 605,-174 846,-315z"/>
   <path class="fil0" d="M3066 3902c-136,-98 -401,-495 -547,-514 -112,-14 -199,55 -216,151 -30,169 193,315 278,411 119,134 210,233 344,367 195,196 323,-31 413,-131l1506 -1646c67,-63 117,-113 166,-191 118,-189 -63,-364 -248,-272 -50,25 -297,300 -350,364l-1346 1461z"/>
   <path class="fil0" d="M6599 1096c0,241 165,404 333,238 98,-98 82,-1184 2,-1263 -93,-91 -1171,-89 -1264,2 -78,75 -60,205 -3,269 92,100 725,59 933,59 0,232 -1,463 -1,695z"/>
   <path class="fil0" d="M6600 6599c-230,0 -461,-2 -691,-1 -417,1 -279,296 -241,332 94,90 1171,88 1264,-3 98,-97 82,-1184 2,-1263 -61,-60 -196,-71 -272,-2 -104,95 -62,725 -62,937z"/>
   <path class="fil0" d="M394 6591c0,-229 1,-457 1,-686 1,-426 -295,-289 -345,-218 -67,95 -41,493 -41,645 0,724 -83,652 711,652 184,0 527,51 623,-78 60,-81 41,-199 -16,-256 -107,-105 -616,-19 -933,-59z"/>
   <path class="fil0" d="M396 412c165,-30 498,-10 681,-10 401,1 311,-255 254,-320 -98,-109 -467,-66 -635,-66 -776,0 -687,-57 -687,676 0,160 -41,536 53,634 18,20 337,230 335,-255 -1,-220 -1,-440 -1,-659z"/>
  </g>
 </g>
</svg>
