<?xml version="1.0" encoding="UTF-8"?>
<!DOCTYPE svg PUBLIC "-//W3C//DTD SVG 1.1//EN" "http://www.w3.org/Graphics/SVG/1.1/DTD/svg11.dtd">
<!-- Creator: CorelDRAW X7 -->
<svg xmlns="http://www.w3.org/2000/svg" xml:space="preserve" width="52mm" height="70mm" version="1.1" style="shape-rendering:geometricPrecision; text-rendering:geometricPrecision; image-rendering:optimizeQuality; fill-rule:evenodd; clip-rule:evenodd"
viewBox="0 0 5200 7000"
 xmlns:xlink="http://www.w3.org/1999/xlink">
 <defs>
  <style type="text/css">
   <![CDATA[
    .fil0 {fill:#D9DADA;fill-rule:nonzero}
   ]]>
  </style>
 </defs>
 <g id="Слой_x0020_1">
  <metadata id="CorelCorpID_0Corel-Layer"/>
  <path class="fil0" d="M410 0l4380 0c107,0 204,44 275,114l1 1c70,71 114,168 114,275l0 6220c0,107 -44,204 -114,275l-1 1c-71,70 -168,114 -275,114l-4380 0c-107,0 -204,-44 -275,-114l-1 -1c-70,-71 -114,-168 -114,-275l0 -6220c0,-107 44,-204 114,-275l1 -1c71,-70 168,-114 275,-114zm-15 3313l4410 0 0 -2923c0,-4 -2,-8 -4,-11 -3,-3 -7,-4 -11,-4l-4380 0c-4,0 -8,1 -11,4 -2,3 -4,7 -4,11l0 2923zm4410 374l-4410 0 0 2923c0,5 2,8 4,11 3,3 7,4 11,4l548 0c-63,-13 -120,-45 -165,-89 -59,-59 -95,-141 -95,-231l0 -1018c0,-90 36,-172 95,-231l1 0c59,-59 141,-95 230,-95l2332 0c89,0 171,36 230,95l0 0c60,59 96,141 96,231l0 1018c0,90 -36,172 -96,231 -44,44 -101,76 -164,89l439 0c-2,0 -4,-1 -7,-2 -98,-29 -154,-134 -124,-232l636 -2093c30,-98 134,-154 233,-124 98,30 154,134 124,233l-636 2092c-19,64 -70,110 -130,126l833 0c4,0 8,-1 11,-4 2,-3 4,-6 4,-11l0 -2923zm-2441 1648l0 282c0,103 -83,187 -187,187 -103,0 -187,-84 -187,-187l0 -282 -918 0 0 922 2235 0 0 -922 -943 0zm1793 -4496c0,-103 84,-187 187,-187 104,0 188,84 188,187l0 436c0,104 -84,188 -188,188 -103,0 -187,-84 -187,-188l0 -436zm-620 0c0,-103 84,-187 188,-187 103,0 187,84 187,187l0 436c0,104 -84,188 -187,188 -104,0 -188,-84 -188,-188l0 -436zm-2086 1588l0 278c0,104 -84,188 -187,188 -104,0 -188,-84 -188,-188l0 -278c-92,-30 -175,-81 -242,-148 -110,-110 -178,-262 -178,-430 0,-168 68,-319 178,-429 110,-110 262,-178 430,-178 167,0 319,68 429,178 110,110 178,261 178,429 0,168 -68,320 -178,430 -67,67 -150,118 -242,148zm-23 -742c-42,-42 -100,-68 -164,-68 -65,0 -123,26 -165,68 -42,42 -68,100 -68,164 0,64 26,123 68,165 42,42 100,68 165,68 64,0 122,-26 164,-68 42,-42 68,-101 68,-165 0,-64 -26,-122 -68,-164zm-164 397l0 0 0 0z"/>
 </g>
</svg>
